# xmcd
#
# Track frame offsets: 
#        150
#        14267
#        25086
#        38016
#        53609
#        77962
#        92682
#        115359
#        135561
#        151225
#        163690
#        188337
#
# Disc length: 2749 seconds
#
# Revision: 0
# Processed by: cddbd v1.5.2PL0 Copyright (c) Steve Scherf et al.
# Submitted via: ExactAudioCopy v0.95b2
#
DISCID=850abb0c
DTITLE=Nukker Kukeke - Vokaal- instrumentaalansambel Nukker Kukeke
DYEAR=2008
DGENRE=Pop-Folk
TTITLE0=Quando
TTITLE1=Jälle Teel
TTITLE2=Uued Rajad
TTITLE3=Viinakera
TTITLE4=Tassike Teed
TTITLE5=Rännumees
TTITLE6=Mägra Maja
TTITLE7=Saladus
TTITLE8=Mul Aega On Küll
TTITLE9=Kuke Bluus
TTITLE10=Vana Pildiraam
TTITLE11=Täna Olen Aus
EXTD=
EXTT0=
EXTT1=
EXTT2=
EXTT3=
EXTT4=
EXTT5=
EXTT6=
EXTT7=
EXTT8=
EXTT9=
EXTT10=
EXTT11=
PLAYORDER=
